<?xml version="1.0" encoding="utf-8"?>
<!-- Generator: Adobe Illustrator 17.0.0, SVG Export Plug-In . SVG Version: 6.00 Build 0)  -->
<!DOCTYPE svg PUBLIC "-//W3C//DTD SVG 1.1//EN" "http://www.w3.org/Graphics/SVG/1.1/DTD/svg11.dtd">
<svg version="1.1" id="Layer_1" xmlns="http://www.w3.org/2000/svg" xmlns:xlink="http://www.w3.org/1999/xlink" x="0px" y="0px"
	 width="550px" height="109px" viewBox="0 0 550 109" enable-background="new 0 0 550 109" xml:space="preserve">
<polygon fill="#7E7B7C" points="32.966,56.385 32.966,33.23 47.438,44.807 61.91,56.385 47.438,67.962 32.966,79.54 "/>
<path fill="none" stroke="#B9962F" stroke-width="7" stroke-miterlimit="10" d="M73.654,87.809H18.348
	c-2.074,0-3.771-1.697-3.771-3.771V28.732c0-2.074,1.697-3.771,3.771-3.771h55.306c2.074,0,3.771,1.697,3.771,3.771v55.306
	C77.425,86.112,75.728,87.809,73.654,87.809z"/>
<g>
	<path fill="#BA972F" d="M99.119,26.625c0-3.197,2.498-5.295,5.695-5.295s5.695,2.098,5.695,5.295c0,3.097-2.498,5.295-5.695,5.295
		S99.119,29.722,99.119,26.625z M100.618,41.911h8.193V90.47h-8.193V41.911z"/>
	<path fill="#BA972F" d="M125.994,24.926h16.386c20.183,0,30.974,11.69,30.974,32.472c0,20.882-10.791,33.072-30.574,33.072h-16.786
		V24.926z M141.78,83.676c15.287,0,22.98-9.692,22.98-26.278c0-16.486-7.693-25.678-22.98-25.678h-7.494v51.956H141.78z"/>
	<path fill="#BA972F" d="M205.522,40.713c11.89,0,22.481,9.292,22.481,25.578c0,16.086-10.591,25.378-22.481,25.378
		c-11.89,0-22.48-9.292-22.48-25.378C183.042,50.005,193.632,40.713,205.522,40.713z M205.522,84.875
		c8.393,0,13.988-7.494,13.988-18.584c0-11.19-5.595-18.784-13.988-18.784c-8.292,0-13.988,7.594-13.988,18.784
		C191.534,77.381,197.229,84.875,205.522,84.875z"/>
	<path fill="#BA972F" d="M260.572,40.713c6.395,0,10.891,2.698,14.188,5.795l-4.096,5.295c-2.898-2.498-5.896-4.296-9.792-4.296
		c-8.792,0-15.187,7.594-15.187,18.784c0,11.09,6.095,18.584,14.987,18.584c4.596,0,8.493-2.299,11.39-4.896l3.696,5.396
		c-4.396,3.896-9.991,6.295-15.786,6.295c-12.889,0-22.78-9.292-22.78-25.378C237.192,50.005,248.083,40.713,260.572,40.713z"/>
	<path fill="#7E7B7C" d="M286.349,41.911h6.794l0.699,6.994h0.3c4.196-4.596,9.292-8.193,15.087-8.193
		c7.394,0,11.391,3.497,13.389,9.292c5.096-5.496,10.092-9.292,15.986-9.292c9.991,0,14.787,6.594,14.787,18.984V90.47h-8.192
		V60.795c0-9.092-2.897-12.989-8.992-12.989c-3.797,0-7.693,2.498-12.19,7.494v35.17h-8.192V60.795
		c0-9.092-2.897-12.989-9.093-12.989c-3.597,0-7.693,2.498-12.189,7.494v35.17h-8.192V41.911z"/>
	<path fill="#7E7B7C" d="M387.358,40.713c12.389,0,19.383,8.892,19.383,22.78c0,1.699-0.1,3.297-0.3,4.497H373.67
		c0.6,10.491,6.894,17.085,16.186,17.085c4.597,0,8.493-1.499,12.09-3.797l2.897,5.396c-4.196,2.698-9.392,4.996-15.986,4.996
		c-12.988,0-23.28-9.492-23.28-25.378C365.576,50.404,376.268,40.713,387.358,40.713z M399.548,62.594
		c0-9.892-4.396-15.387-11.99-15.387c-6.794,0-12.988,5.595-13.988,15.387H399.548z"/>
	<path fill="#7E7B7C" d="M436.313,40.713c5.595,0,9.292,2.098,13.588,5.595l-0.399-8.293V19.331h8.293V90.47H451l-0.7-5.695H450
		c-3.796,3.697-8.992,6.895-14.687,6.895c-12.19,0-20.083-9.192-20.083-25.378C415.23,50.504,425.222,40.713,436.313,40.713z
		 M437.111,84.775c4.496,0,8.393-2.198,12.39-6.694V52.702c-4.097-3.697-7.793-5.096-11.79-5.096
		c-7.793,0-13.988,7.494-13.988,18.584C423.723,77.781,428.619,84.775,437.111,84.775z"/>
	<path fill="#7E7B7C" d="M472.679,26.625c0-3.197,2.498-5.295,5.695-5.295s5.695,2.098,5.695,5.295c0,3.097-2.498,5.295-5.695,5.295
		S472.679,29.722,472.679,26.625z M474.178,41.911h8.192V90.47h-8.192V41.911z"/>
	<path fill="#7E7B7C" d="M526.23,59.697c0-6.195-2.099-12.19-9.992-12.19c-5.694,0-10.69,2.598-14.487,5.196l-3.297-5.695
		c4.496-2.897,11.29-6.294,19.083-6.294c11.891,0,16.886,7.893,16.886,19.983V90.47h-6.794l-0.699-5.795h-0.2
		c-4.696,3.797-10.091,6.994-16.086,6.994c-8.193,0-14.288-5.096-14.288-13.788C496.355,67.289,505.548,61.994,526.23,59.697z
		 M512.941,85.074c4.696,0,8.593-2.298,13.289-6.494V65.092c-16.286,1.999-21.782,5.995-21.782,12.19
		C504.448,82.777,508.146,85.074,512.941,85.074z"/>
</g>
</svg>
